<?xml version="1.0" standalone="no"?>
<!DOCTYPE svg PUBLIC "-//W3C//DTD SVG 20010904//EN"
 "http://www.w3.org/TR/2001/REC-SVG-20010904/DTD/svg10.dtd">
<svg version="1.0" xmlns="http://www.w3.org/2000/svg"
 width="512.000000pt" height="512.000000pt" viewBox="0 0 512.000000 512.000000"
 preserveAspectRatio="xMidYMid meet">

<g transform="translate(0.000000,512.000000) scale(0.100000,-0.100000)"
fill="#FFFFFF" stroke="none">
<path d="M800 4331 c-403 -85 -714 -410 -785 -820 -22 -124 -22 -1778 0 -1902
62 -354 300 -645 634 -774 177 -68 75 -65 1915 -65 1580 0 1665 1 1751 19 413
85 736 429 794 845 7 50 11 372 11 926 0 896 -2 941 -47 1085 -111 353 -410
621 -773 689 -73 14 -279 16 -1749 15 -1563 0 -1671 -2 -1751 -18z m3541 -317
c218 -78 380 -249 451 -474 l23 -75 0 -905 0 -905 -23 -75 c-78 -249 -264
-428 -509 -491 -74 -18 -124 -19 -1723 -19 -1605 0 -1649 0 -1724 20 -197 50
-373 192 -459 370 -79 164 -77 136 -77 1100 0 960 -2 937 75 1095 89 185 256
322 457 375 71 18 123 19 1748 17 l1675 -2 86 -31z"/>
<path d="M1991 3518 c-19 -12 -44 -36 -55 -51 -21 -28 -21 -31 -21 -897 0
-866 0 -869 21 -897 54 -73 127 -91 205 -49 116 62 1328 811 1353 836 25 24
30 39 34 87 3 48 0 64 -20 92 -17 26 -192 141 -706 464 -756 475 -738 466
-811 415z m677 -685 c232 -146 421 -270 420 -274 -3 -8 -864 -539 -874 -539
-2 0 -4 246 -4 546 0 513 1 546 17 540 10 -4 208 -127 441 -273z"/>
</g>
</svg>
